# xmcd
# Track frame offsets:
# 150
# 3430
# 15920
# 27585
# 43945
#
# Disc length: 856 seconds
# Revision: 0
# Processed by: cddbd v1.5.2PL0 Copyright (c) Steve Scherf et al.
# Submitted via: VisiTrax 2.11.2.271 - For more info visit www.synapsa.com
#
DISCID=32035605
DTITLE=Randy Travis - Randy Travis Private Collection
DYEAR=1998
DGENRE=Country
TTITLE0=Intro
TTITLE1=Out Of My Bones
TTITLE2=Brinks Truck
TTITLE3=Satisfied Mind
TTITLE4=Horse Called Music
EXTD=
EXTT0=
EXTT1=
EXTT2=
EXTT3=
EXTT4=
PLAYORDER=
